<?xml version="1.0" encoding="UTF-8" standalone="no"?>
<!-- Generator: Adobe Illustrator 22.1.0, SVG Export Plug-In . SVG Version: 6.00 Build 0)  -->

<svg
   version="1.1"
   id="Layer_1"
   x="0px"
   y="0px"
   viewBox="0 0 339.1 335.37578"
   xml:space="preserve"
   sodipodi:docname="compsci_isolated_black_wsu_included.svg"
   inkscape:version="1.2.1 (9c6d41e410, 2022-07-14)"
   width="339.10001"
   height="335.37576"
   xmlns:inkscape="http://www.inkscape.org/namespaces/inkscape"
   xmlns:sodipodi="http://sodipodi.sourceforge.net/DTD/sodipodi-0.dtd"
   xmlns="http://www.w3.org/2000/svg"
   xmlns:svg="http://www.w3.org/2000/svg"><defs
   id="defs91" /><sodipodi:namedview
   id="namedview89"
   pagecolor="#393939"
   bordercolor="#666666"
   borderopacity="1.0"
   inkscape:showpageshadow="2"
   inkscape:pageopacity="0"
   inkscape:pagecheckerboard="0"
   inkscape:deskcolor="#d1d1d1"
   showgrid="false"
   inkscape:zoom="1.4713218"
   inkscape:cx="179.77033"
   inkscape:cy="148.16609"
   inkscape:window-width="1920"
   inkscape:window-height="1017"
   inkscape:window-x="-8"
   inkscape:window-y="-8"
   inkscape:window-maximized="1"
   inkscape:current-layer="Layer_1" />
<style
   type="text/css"
   id="style2">
	.st0{fill:#FFFFFF;}
</style>
<g
   id="g86"
   style="opacity:1;fill:#000000"
   transform="translate(-46.5,-17.2)">
	<g
   id="g22"
   style="fill:#000000">
		<g
   id="g20"
   style="fill:#000000">
			<path
   class="st0"
   d="m 69.6,66.4 v -4.9 c 0,-5.3 -2.4,-7.6 -5.3,-7.6 -4.4,0 -5.8,2.3 -5.8,7.1 v 32.2 c 0,4.7 1.4,7.1 5.8,7.1 3.9,0 5.3,-2.3 5.3,-6.4 v -7.6 h 10.9 v 7.3 c 0,8.9 -5.3,16.2 -16.2,16.2 -11.5,0 -16.7,-7.3 -16.7,-16.2 v -33 c 0,-8.9 5.3,-16.2 16.7,-16.2 10.9,0 16.2,7.9 16.2,17.4 v 4.6 z"
   id="path4"
   style="fill:#000000" />
			<path
   class="st0"
   d="m 91.5,60.6 c 0,-8.9 5.3,-16.2 16.7,-16.2 11.4,0 16.7,7.3 16.7,16.2 v 32.7 c 0,8.9 -5.3,16.2 -16.7,16.2 -11.4,0 -16.7,-7.3 -16.7,-16.2 0,0 0,-32.7 0,-32.7 z M 102.4,93 c 0,4.7 1.4,7.1 5.8,7.1 4.4,0 5.8,-2.3 5.8,-7.1 V 60.9 c 0,-4.8 -1.4,-7.1 -5.8,-7.1 -4.4,0 -5.8,2.3 -5.8,7.1 z"
   id="path6"
   style="fill:#000000" />
			<path
   class="st0"
   d="m 179.2,45.3 v 63.5 h -9.5 V 59.1 h -0.2 l -9.8,49.6 h -5.3 l -9.8,-49.6 h -0.2 v 49.6 H 135 V 45.3 h 14.4 l 7.8,37.1 h 0.2 l 7.8,-37.1 c -0.2,0 14,0 14,0 z"
   id="path8"
   style="fill:#000000" />
			<path
   class="st0"
   d="M 189.1,108.7 V 45.3 h 15.6 c 13.4,0 19.7,5.2 19.7,18.7 0,13.5 -6.3,18.7 -19.7,18.7 h -4.8 v 26 z m 10.9,-35 h 4.2 c 7.1,0 9.3,-2.2 9.3,-9.7 0,-7.5 -2.2,-9.7 -9.3,-9.7 H 200 Z"
   id="path10"
   style="fill:#000000" />
			<path
   class="st0"
   d="m 233,45.3 h 10.9 v 47.9 c 0,4.6 1.9,7 5.8,7 3.9,0 5.8,-2.3 5.8,-7 V 45.3 h 10.9 v 47.5 c 0,10.9 -6.4,16.9 -16.7,16.9 -10.4,0 -16.7,-6 -16.7,-16.9 z"
   id="path12"
   style="fill:#000000" />
			<path
   class="st0"
   d="m 283.3,54.7 h -10.5 v -9.5 h 32 v 9.5 h -10.5 v 54 h -10.9 z"
   id="path14"
   style="fill:#000000" />
			<path
   class="st0"
   d="M 311.2,108.7 V 45.3 h 29.2 v 9.5 h -18.3 v 16.3 h 14 v 9.5 h -14 v 18.7 h 19.5 v 9.5 h -30.4 z"
   id="path16"
   style="fill:#000000" />
			<path
   class="st0"
   d="M 361.1,108.7 H 350.2 V 45.3 h 15.3 c 12.2,0 18.4,5.2 18.4,18.7 0,10.2 -3.9,14.4 -7.6,16 l 9.3,28.7 h -11.1 l -7.8,-26.3 c -1.4,0.2 -3.7,0.2 -5.6,0.2 z m 0,-35 h 3.8 c 5.9,0 8.1,-2.2 8.1,-9.7 0,-7.5 -2.2,-9.7 -8.1,-9.7 h -3.8 z"
   id="path18"
   style="fill:#000000" />
		</g>
	</g>
	<g
   id="g40"
   style="fill:#000000">
		<g
   id="g38"
   style="fill:#000000">
			<path
   class="st0"
   d="m 67.2,125.5 c -0.8,-2.2 -2.7,-4.1 -8.6,-4.1 -3.2,0 -6.5,0.8 -6.5,3.1 0,1 0.6,2.1 5.5,2.7 l 5.8,0.9 c 5.5,0.9 8.7,3 8.7,7.1 0,5.8 -5.5,7.9 -12,7.9 -10.5,0 -13,-5.2 -13.6,-7.1 l 4.6,-1.4 c 0.9,1.8 2.7,4.4 9.2,4.4 3.9,0 7.1,-1.3 7.1,-3.4 0,-1.6 -1.8,-2.6 -5.3,-3.1 l -5.9,-0.8 c -5.6,-0.8 -8.8,-3.2 -8.8,-7 0,-7.3 9.5,-7.3 11.4,-7.3 10.5,0 12.3,4.9 12.9,6.6 z"
   id="path24"
   style="fill:#000000" />
			<path
   class="st0"
   d="m 127.9,133.8 c -0.5,2.7 -2.4,9.3 -13.6,9.3 -7.7,0 -13.8,-4.3 -13.8,-13.2 0,-7.1 4.5,-12.4 14.2,-12.4 10.9,0 12.6,7.1 12.9,8.4 h -4.8 c -0.2,-0.9 -2.1,-4.3 -7.8,-4.3 -6.7,0 -9.6,3.8 -9.6,8.9 0,5.6 4.1,8.6 9.3,8.6 5.6,0 8,-3.3 8.5,-5.2 z"
   id="path26"
   style="fill:#000000" />
			<path
   class="st0"
   d="m 158.5,118.1 h 4.8 v 24.4 h -4.8 z"
   id="path28"
   style="fill:#000000" />
			<path
   class="st0"
   d="m 195.4,118.1 h 21.9 v 4.1 h -17.1 v 5.6 h 14.7 v 4.1 h -14.7 v 6.4 h 17.6 v 4.1 h -22.3 z"
   id="path30"
   style="fill:#000000" />
			<path
   class="st0"
   d="m 247.6,118.1 h 5 l 16.3,17.7 v -17.7 h 4.5 v 24.4 H 269 l -17,-18.3 v 18.3 h -4.5 z"
   id="path32"
   style="fill:#000000" />
			<path
   class="st0"
   d="m 331.1,133.8 c -0.5,2.7 -2.4,9.3 -13.6,9.3 -7.7,0 -13.8,-4.3 -13.8,-13.2 0,-7.1 4.5,-12.4 14.2,-12.4 10.9,0 12.6,7.1 12.9,8.4 H 326 c -0.2,-0.9 -2.1,-4.3 -7.8,-4.3 -6.7,0 -9.6,3.8 -9.6,8.9 0,5.6 4.1,8.6 9.3,8.6 5.6,0 8,-3.3 8.5,-5.2 z"
   id="path34"
   style="fill:#000000" />
			<path
   class="st0"
   d="m 361.4,118.1 h 21.9 v 4.1 h -17.1 v 5.6 h 14.7 v 4.1 h -14.7 v 6.4 h 17.6 v 4.1 h -22.3 z"
   id="path36"
   style="fill:#000000" />
		</g>
	</g>
	<g
   id="g84"
   style="fill:#000000">
		<rect
   x="353.20001"
   y="25.200001"
   class="st0"
   width="32.299999"
   height="1.4"
   id="rect42"
   style="fill:#000000" />
		<g
   id="g46"
   style="fill:#000000">
			<rect
   x="47.900002"
   y="25.1"
   class="st0"
   width="32.299999"
   height="1.4"
   id="rect44"
   style="fill:#000000" />
		</g>
		<g
   id="g82"
   style="fill:#000000">
			<path
   class="st0"
   d="m 97.5,21.7 c -0.4,-1.6 -1.7,-2.9 -3.8,-2.9 -1.9,0 -3.1,0.9 -3.1,2.5 0,3.7 9.3,2.7 9.3,8.1 0,2.4 -1.3,4.9 -5.5,4.9 -3.6,0 -5,-2.4 -5.9,-4.3 l 1.6,-0.6 c 0.6,1.7 1.9,3.3 4.3,3.3 2.4,0 3.6,-1.3 3.6,-3 0,-4.2 -9.3,-3 -9.3,-8.2 0,-2.4 2,-4.2 4.9,-4.2 2.5,0 4.5,1.3 5.4,4.1 z"
   id="path48"
   style="fill:#000000" />
			<path
   class="st0"
   d="m 114.3,29.1 c -0.7,3.1 -2.4,5.2 -5.8,5.2 -3.7,0 -6.3,-2.7 -6.3,-8.5 0,-5.4 2.3,-8.5 6.3,-8.5 3.1,0 4.8,1.8 5.6,4.8 l -1.6,0.5 c -0.6,-2.4 -1.6,-3.8 -4.1,-3.8 -2.4,0 -4.2,2.2 -4.2,6.9 0,4.8 1.9,6.9 4.6,6.9 2.5,0 3.5,-1.9 4,-3.9 z"
   id="path50"
   style="fill:#000000" />
			<path
   class="st0"
   d="M 129.1,17.6 V 34 h -1.8 v -7.8 h -7.8 V 34 h -1.8 V 17.6 h 1.8 v 7.1 h 7.8 v -7.1 c 0,0 1.8,0 1.8,0 z"
   id="path52"
   style="fill:#000000" />
			<path
   class="st0"
   d="m 139.1,17.3 c 4,0 6.4,3 6.4,8.5 0,5.5 -2.4,8.5 -6.4,8.5 -4.1,0 -6.4,-3 -6.4,-8.5 0,-5.5 2.4,-8.5 6.4,-8.5 z m 0,15.4 c 2.9,0 4.6,-2.2 4.6,-6.9 0,-4.6 -1.7,-6.9 -4.6,-6.9 -2.9,0 -4.6,2.2 -4.6,6.9 0,4.6 1.7,6.9 4.6,6.9 z"
   id="path54"
   style="fill:#000000" />
			<path
   class="st0"
   d="m 154.3,17.3 c 4,0 6.4,3 6.4,8.5 0,5.5 -2.4,8.5 -6.4,8.5 -4.1,0 -6.4,-3 -6.4,-8.5 0,-5.5 2.4,-8.5 6.4,-8.5 z m 0,15.4 c 2.9,0 4.6,-2.2 4.6,-6.9 0,-4.6 -1.7,-6.9 -4.6,-6.9 -2.9,0 -4.6,2.2 -4.6,6.9 0,4.6 1.8,6.9 4.6,6.9 z"
   id="path56"
   style="fill:#000000" />
			<path
   class="st0"
   d="M 164.4,34 V 17.6 h 1.8 V 32.5 H 174 V 34 Z"
   id="path58"
   style="fill:#000000" />
			<path
   class="st0"
   d="m 189.1,17.3 c 4,0 6.4,3 6.4,8.5 0,5.5 -2.4,8.5 -6.4,8.5 -4.1,0 -6.4,-3 -6.4,-8.5 0,-5.5 2.3,-8.5 6.4,-8.5 z m 0,15.4 c 2.9,0 4.6,-2.2 4.6,-6.9 0,-4.6 -1.7,-6.9 -4.6,-6.9 -2.9,0 -4.6,2.2 -4.6,6.9 0,4.6 1.7,6.9 4.6,6.9 z"
   id="path60"
   style="fill:#000000" />
			<path
   class="st0"
   d="m 208.7,17.6 v 1.6 h -7.9 v 5.5 h 5.9 v 1.6 h -5.9 V 34 H 199 V 17.6 Z"
   id="path62"
   style="fill:#000000" />
			<path
   class="st0"
   d="m 229.3,29.1 c -0.7,3.1 -2.4,5.2 -5.8,5.2 -3.7,0 -6.3,-2.7 -6.3,-8.5 0,-5.3 2.4,-8.5 6.3,-8.5 3.1,0 4.8,1.8 5.6,4.8 l -1.6,0.5 c -0.6,-2.4 -1.6,-3.8 -4.1,-3.8 -2.4,0 -4.2,2.2 -4.2,6.9 0,4.8 1.9,6.9 4.6,6.9 2.5,0 3.5,-1.9 4,-3.9 z"
   id="path64"
   style="fill:#000000" />
			<path
   class="st0"
   d="m 237.8,17.3 c 4,0 6.4,3 6.4,8.5 0,5.5 -2.4,8.5 -6.4,8.5 -4.1,0 -6.4,-3 -6.4,-8.5 0,-5.5 2.4,-8.5 6.4,-8.5 z m 0,15.4 c 2.9,0 4.6,-2.2 4.6,-6.9 0,-4.6 -1.7,-6.9 -4.6,-6.9 -2.9,0 -4.6,2.2 -4.6,6.9 0,4.6 1.6,6.9 4.6,6.9 z"
   id="path66"
   style="fill:#000000" />
			<path
   class="st0"
   d="M 260.3,34 V 19 h -0.1 l -4.6,15 h -1.4 l -4.6,-15 h -0.1 v 15 h -1.6 V 17.6 h 2.8 l 4.2,13.3 h 0.1 l 4.2,-13.3 h 2.9 V 34 c -0.2,0 -1.8,0 -1.8,0 z"
   id="path68"
   style="fill:#000000" />
			<path
   class="st0"
   d="M 266.6,34 V 17.6 h 5.7 c 3.5,0 5,2 5,4.6 0,2.7 -1.9,4.5 -6,4.5 h -2.9 V 34 c 0,0 -1.8,0 -1.8,0 z m 1.8,-8.9 h 3.1 c 3.1,0 4,-1 4,-3 0,-2 -1.2,-3 -3.6,-3 h -3.5 z"
   id="path70"
   style="fill:#000000" />
			<path
   class="st0"
   d="m 282.5,17.6 v 11.6 c 0,1.9 1.3,3.5 3.9,3.5 2.6,0 3.9,-1.6 3.9,-3.5 V 17.6 h 1.8 V 29 c 0,3.3 -2.4,5.2 -5.7,5.2 -3.3,0 -5.7,-1.9 -5.7,-5.2 V 17.6 Z"
   id="path72"
   style="fill:#000000" />
			<path
   class="st0"
   d="M 301.9,19.1 V 34 h -1.8 V 19.1 h -4.9 v -1.6 h 11.7 v 1.6 c 0,0 -5,0 -5,0 z"
   id="path74"
   style="fill:#000000" />
			<path
   class="st0"
   d="M 312,17.6 V 34 h -1.8 V 17.6 Z"
   id="path76"
   style="fill:#000000" />
			<path
   class="st0"
   d="M 317.4,34 V 17.6 h 2.6 l 7.1,12.6 h 0.1 V 17.6 h 1.6 V 34 h -1.5 L 319,19.4 h -0.1 V 34 Z"
   id="path78"
   style="fill:#000000" />
			<path
   class="st0"
   d="M 344.7,26.1 V 34 h -1.5 v -1.5 h -0.1 c -0.9,1.2 -2.5,1.7 -4.3,1.7 -3.8,0 -6.4,-2.7 -6.4,-8.5 0,-5.7 2.7,-8.5 6.4,-8.5 2.7,0 4.9,1.3 5.9,4.9 l -1.6,0.3 c -0.8,-2.6 -2.2,-3.6 -4.1,-3.6 -2.4,0 -4.7,1.6 -4.7,6.9 0,5.3 2.3,6.9 4.7,6.9 2.7,0 3.9,-1.6 3.9,-3.6 v -1.4 h -3.7 V 26 h 5.5 z"
   id="path80"
   style="fill:#000000" />
		</g>
	</g>
</g>
<g
   id="g12"
   transform="matrix(0.18418977,0,0,-0.18418977,-130.95693,535.35059)"><path
     d="m 1966.18,1781.72 v 253.48 h -668.83 v -256.16 c 0,-481.42 334.4,-678.73 334.4,-678.73 v 0 c 0,0 336.27,185.08 334.43,680.08 v 1.33"
     style="fill:#412261;fill-opacity:1;fill-rule:nonzero;stroke:none"
     id="path54-4" /><path
     d="m 1310.07,2022.48 v -243.44 c 0,-244.55 89.12,-412.99 163.87,-511.23 68.24,-89.65 137.28,-138.85 158,-152.56 20.92,13.01 90.18,59.91 158.42,148.3 74.94,96.96 164.02,265.34 163.11,516.8 v 242.13 z m 321.46,-936.78 -6.23,3.68 c -3.42,2.03 -340.65,206.58 -340.65,689.66 v 268.89 h 694.25 v -266.21 c 1.83,-498.09 -337.58,-690.67 -341,-692.54 l -6.37,-3.48"
     style="fill:#ffffff;fill-opacity:1;fill-rule:nonzero;stroke:none"
     id="path56-8" /><path
     d="m 1780.17,1803.09 c -47.39,62.24 -39.38,90.54 -39.38,90.54 0,0 -25.12,-45.04 -37.73,-82.38 -15.47,-45.55 15.06,-92.5 15.06,-92.5 l 51.87,-75.2 c 20.08,-31.44 -29.55,-104.45 -29.55,-104.45 l -107.46,250.33 c -43.63,101.59 -17.54,139.95 -17.54,139.95 -88.91,-93.75 -77.09,-152.86 -63.48,-194.18 0,0 19.57,-48.48 44.61,-110.47 l -34.51,-89.69 -69.22,164.73 c -24.04,62.5 1.82,104.49 1.82,104.49 -111.7,-97.7 -70.39,-198.05 -49.22,-249.3 47.6,-115.55 79.06,-188.87 86.46,-208.87 1.59,-4.31 3.01,-7.89 3.01,-7.89 h 21.25 c 1.78,0.28 3.21,1.18 4.3,2.82 1.09,1.54 8.01,24.14 8.01,24.14 l 56.32,189.57 c 36.65,-90.82 82.31,-203.01 85.22,-210.73 1.43,-3.73 2.36,-5.8 2.36,-5.8 -0.06,0 20.82,0 20.82,0 1.21,0.24 2.41,0.78 3.83,2.58 1.68,2.23 9.04,24.57 9.04,24.57 l 82.47,238.28 c 40.37,105.04 -10.1,149.12 -48.36,199.46"
     style="fill:#ffffff;fill-opacity:1;fill-rule:nonzero;stroke:none"
     id="path58-9" /></g></svg>
