<?xml version="1.0" encoding="UTF-8" standalone="no"?>
<!-- Generator: Adobe Illustrator 22.1.0, SVG Export Plug-In . SVG Version: 6.00 Build 0)  -->

<svg
   version="1.1"
   id="Layer_1"
   x="0px"
   y="0px"
   viewBox="0 0 432.2 160.4"
   style="enable-background:new 0 0 432.2 160.4;"
   xml:space="preserve"
   sodipodi:docname="compsci_isolated_black.svg"
   inkscape:version="1.2.1 (9c6d41e410, 2022-07-14)"
   xmlns:inkscape="http://www.inkscape.org/namespaces/inkscape"
   xmlns:sodipodi="http://sodipodi.sourceforge.net/DTD/sodipodi-0.dtd"
   xmlns="http://www.w3.org/2000/svg"
   xmlns:svg="http://www.w3.org/2000/svg"><defs
   id="defs91" /><sodipodi:namedview
   id="namedview89"
   pagecolor="#393939"
   bordercolor="#666666"
   borderopacity="1.0"
   inkscape:showpageshadow="2"
   inkscape:pageopacity="0"
   inkscape:pagecheckerboard="0"
   inkscape:deskcolor="#d1d1d1"
   showgrid="false"
   inkscape:zoom="1.4713218"
   inkscape:cx="192.34406"
   inkscape:cy="80.199997"
   inkscape:window-width="1920"
   inkscape:window-height="1017"
   inkscape:window-x="-8"
   inkscape:window-y="-8"
   inkscape:window-maximized="1"
   inkscape:current-layer="Layer_1" />
<style
   type="text/css"
   id="style2">
	.st0{fill:#FFFFFF;}
</style>
<g
   id="g86"
   style="fill:#000000;opacity:1">
	<g
   id="g22"
   style="fill:#000000">
		<g
   id="g20"
   style="fill:#000000">
			<path
   class="st0"
   d="M69.6,66.4v-4.9c0-5.3-2.4-7.6-5.3-7.6c-4.4,0-5.8,2.3-5.8,7.1v32.2c0,4.7,1.4,7.1,5.8,7.1     c3.9,0,5.3-2.3,5.3-6.4v-7.6h10.9v7.3c0,8.9-5.3,16.2-16.2,16.2c-11.5,0-16.7-7.3-16.7-16.2V60.6c0-8.9,5.3-16.2,16.7-16.2     c10.9,0,16.2,7.9,16.2,17.4v4.6H69.6L69.6,66.4z"
   id="path4"
   style="fill:#000000" />
			<path
   class="st0"
   d="M91.5,60.6c0-8.9,5.3-16.2,16.7-16.2s16.7,7.3,16.7,16.2v32.7c0,8.9-5.3,16.2-16.7,16.2s-16.7-7.3-16.7-16.2     C91.5,93.3,91.5,60.6,91.5,60.6z M102.4,93c0,4.7,1.4,7.1,5.8,7.1c4.4,0,5.8-2.3,5.8-7.1V60.9c0-4.8-1.4-7.1-5.8-7.1     c-4.4,0-5.8,2.3-5.8,7.1V93z"
   id="path6"
   style="fill:#000000" />
			<path
   class="st0"
   d="M179.2,45.3v63.5h-9.5V59.1h-0.2l-9.8,49.6h-5.3l-9.8-49.6h-0.2v49.6H135V45.3h14.4l7.8,37.1h0.2l7.8-37.1     C165,45.3,179.2,45.3,179.2,45.3z"
   id="path8"
   style="fill:#000000" />
			<path
   class="st0"
   d="M189.1,108.7V45.3h15.6c13.4,0,19.7,5.2,19.7,18.7s-6.3,18.7-19.7,18.7h-4.8v26L189.1,108.7L189.1,108.7z      M200,73.7h4.2c7.1,0,9.3-2.2,9.3-9.7s-2.2-9.7-9.3-9.7H200V73.7z"
   id="path10"
   style="fill:#000000" />
			<path
   class="st0"
   d="M233,45.3h10.9v47.9c0,4.6,1.9,7,5.8,7s5.8-2.3,5.8-7V45.3h10.9v47.5c0,10.9-6.4,16.9-16.7,16.9     c-10.4,0-16.7-6-16.7-16.9V45.3L233,45.3z"
   id="path12"
   style="fill:#000000" />
			<path
   class="st0"
   d="M283.3,54.7h-10.5v-9.5h32v9.5h-10.5v54h-10.9L283.3,54.7L283.3,54.7z"
   id="path14"
   style="fill:#000000" />
			<path
   class="st0"
   d="M311.2,108.7V45.3h29.2v9.5h-18.3v16.3h14v9.5h-14v18.7h19.5v9.5H311.2L311.2,108.7z"
   id="path16"
   style="fill:#000000" />
			<path
   class="st0"
   d="M361.1,108.7h-10.9V45.3h15.3c12.2,0,18.4,5.2,18.4,18.7c0,10.2-3.9,14.4-7.6,16l9.3,28.7h-11.1l-7.8-26.3     c-1.4,0.2-3.7,0.2-5.6,0.2L361.1,108.7L361.1,108.7z M361.1,73.7h3.8c5.9,0,8.1-2.2,8.1-9.7s-2.2-9.7-8.1-9.7h-3.8V73.7z"
   id="path18"
   style="fill:#000000" />
		</g>
	</g>
	<g
   id="g40"
   style="fill:#000000">
		<g
   id="g38"
   style="fill:#000000">
			<path
   class="st0"
   d="M67.2,125.5c-0.8-2.2-2.7-4.1-8.6-4.1c-3.2,0-6.5,0.8-6.5,3.1c0,1,0.6,2.1,5.5,2.7l5.8,0.9     c5.5,0.9,8.7,3,8.7,7.1c0,5.8-5.5,7.9-12,7.9c-10.5,0-13-5.2-13.6-7.1l4.6-1.4c0.9,1.8,2.7,4.4,9.2,4.4c3.9,0,7.1-1.3,7.1-3.4     c0-1.6-1.8-2.6-5.3-3.1l-5.9-0.8c-5.6-0.8-8.8-3.2-8.8-7c0-7.3,9.5-7.3,11.4-7.3c10.5,0,12.3,4.9,12.9,6.6L67.2,125.5z"
   id="path24"
   style="fill:#000000" />
			<path
   class="st0"
   d="M127.9,133.8c-0.5,2.7-2.4,9.3-13.6,9.3c-7.7,0-13.8-4.3-13.8-13.2c0-7.1,4.5-12.4,14.2-12.4     c10.9,0,12.6,7.1,12.9,8.4h-4.8c-0.2-0.9-2.1-4.3-7.8-4.3c-6.7,0-9.6,3.8-9.6,8.9c0,5.6,4.1,8.6,9.3,8.6c5.6,0,8-3.3,8.5-5.2     L127.9,133.8L127.9,133.8z"
   id="path26"
   style="fill:#000000" />
			<path
   class="st0"
   d="M158.5,118.1h4.8v24.4h-4.8V118.1z"
   id="path28"
   style="fill:#000000" />
			<path
   class="st0"
   d="M195.4,118.1h21.9v4.1h-17.1v5.6h14.7v4.1h-14.7v6.4h17.6v4.1h-22.3L195.4,118.1L195.4,118.1z"
   id="path30"
   style="fill:#000000" />
			<path
   class="st0"
   d="M247.6,118.1h5l16.3,17.7v-17.7h4.5v24.4h-4.4l-17-18.3v18.3h-4.5L247.6,118.1L247.6,118.1z"
   id="path32"
   style="fill:#000000" />
			<path
   class="st0"
   d="M331.1,133.8c-0.5,2.7-2.4,9.3-13.6,9.3c-7.7,0-13.8-4.3-13.8-13.2c0-7.1,4.5-12.4,14.2-12.4     c10.9,0,12.6,7.1,12.9,8.4h-4.8c-0.2-0.9-2.1-4.3-7.8-4.3c-6.7,0-9.6,3.8-9.6,8.9c0,5.6,4.1,8.6,9.3,8.6c5.6,0,8-3.3,8.5-5.2     L331.1,133.8L331.1,133.8z"
   id="path34"
   style="fill:#000000" />
			<path
   class="st0"
   d="M361.4,118.1h21.9v4.1h-17.1v5.6h14.7v4.1h-14.7v6.4h17.6v4.1h-22.3L361.4,118.1L361.4,118.1z"
   id="path36"
   style="fill:#000000" />
		</g>
	</g>
	<g
   id="g84"
   style="fill:#000000">
		<rect
   x="353.2"
   y="25.2"
   class="st0"
   width="32.3"
   height="1.4"
   id="rect42"
   style="fill:#000000" />
		<g
   id="g46"
   style="fill:#000000">
			<rect
   x="47.9"
   y="25.1"
   class="st0"
   width="32.3"
   height="1.4"
   id="rect44"
   style="fill:#000000" />
		</g>
		<g
   id="g82"
   style="fill:#000000">
			<path
   class="st0"
   d="M97.5,21.7c-0.4-1.6-1.7-2.9-3.8-2.9c-1.9,0-3.1,0.9-3.1,2.5c0,3.7,9.3,2.7,9.3,8.1c0,2.4-1.3,4.9-5.5,4.9     c-3.6,0-5-2.4-5.9-4.3l1.6-0.6c0.6,1.7,1.9,3.3,4.3,3.3s3.6-1.3,3.6-3c0-4.2-9.3-3-9.3-8.2c0-2.4,2-4.2,4.9-4.2     c2.5,0,4.5,1.3,5.4,4.1L97.5,21.7z"
   id="path48"
   style="fill:#000000" />
			<path
   class="st0"
   d="M114.3,29.1c-0.7,3.1-2.4,5.2-5.8,5.2c-3.7,0-6.3-2.7-6.3-8.5c0-5.4,2.3-8.5,6.3-8.5c3.1,0,4.8,1.8,5.6,4.8     l-1.6,0.5c-0.6-2.4-1.6-3.8-4.1-3.8c-2.4,0-4.2,2.2-4.2,6.9c0,4.8,1.9,6.9,4.6,6.9c2.5,0,3.5-1.9,4-3.9L114.3,29.1z"
   id="path50"
   style="fill:#000000" />
			<path
   class="st0"
   d="M129.1,17.6V34h-1.8v-7.8h-7.8V34h-1.8V17.6h1.8v7.1h7.8v-7.1C127.3,17.6,129.1,17.6,129.1,17.6z"
   id="path52"
   style="fill:#000000" />
			<path
   class="st0"
   d="M139.1,17.3c4,0,6.4,3,6.4,8.5s-2.4,8.5-6.4,8.5c-4.1,0-6.4-3-6.4-8.5S135.1,17.3,139.1,17.3z M139.1,32.7     c2.9,0,4.6-2.2,4.6-6.9c0-4.6-1.7-6.9-4.6-6.9c-2.9,0-4.6,2.2-4.6,6.9C134.5,30.4,136.2,32.7,139.1,32.7z"
   id="path54"
   style="fill:#000000" />
			<path
   class="st0"
   d="M154.3,17.3c4,0,6.4,3,6.4,8.5s-2.4,8.5-6.4,8.5c-4.1,0-6.4-3-6.4-8.5S150.3,17.3,154.3,17.3z M154.3,32.7     c2.9,0,4.6-2.2,4.6-6.9c0-4.6-1.7-6.9-4.6-6.9c-2.9,0-4.6,2.2-4.6,6.9C149.7,30.4,151.5,32.7,154.3,32.7z"
   id="path56"
   style="fill:#000000" />
			<path
   class="st0"
   d="M164.4,34V17.6h1.8v14.9h7.8V34L164.4,34L164.4,34z"
   id="path58"
   style="fill:#000000" />
			<path
   class="st0"
   d="M189.1,17.3c4,0,6.4,3,6.4,8.5s-2.4,8.5-6.4,8.5c-4.1,0-6.4-3-6.4-8.5S185,17.3,189.1,17.3z M189.1,32.7     c2.9,0,4.6-2.2,4.6-6.9c0-4.6-1.7-6.9-4.6-6.9c-2.9,0-4.6,2.2-4.6,6.9C184.5,30.4,186.2,32.7,189.1,32.7z"
   id="path60"
   style="fill:#000000" />
			<path
   class="st0"
   d="M208.7,17.6v1.6h-7.9v5.5h5.9v1.6h-5.9V34H199V17.6H208.7z"
   id="path62"
   style="fill:#000000" />
			<path
   class="st0"
   d="M229.3,29.1c-0.7,3.1-2.4,5.2-5.8,5.2c-3.7,0-6.3-2.7-6.3-8.5c0-5.3,2.4-8.5,6.3-8.5c3.1,0,4.8,1.8,5.6,4.8     l-1.6,0.5c-0.6-2.4-1.6-3.8-4.1-3.8c-2.4,0-4.2,2.2-4.2,6.9c0,4.8,1.9,6.9,4.6,6.9c2.5,0,3.5-1.9,4-3.9L229.3,29.1z"
   id="path64"
   style="fill:#000000" />
			<path
   class="st0"
   d="M237.8,17.3c4,0,6.4,3,6.4,8.5s-2.4,8.5-6.4,8.5c-4.1,0-6.4-3-6.4-8.5S233.8,17.3,237.8,17.3z M237.8,32.7     c2.9,0,4.6-2.2,4.6-6.9c0-4.6-1.7-6.9-4.6-6.9c-2.9,0-4.6,2.2-4.6,6.9C233.2,30.4,234.8,32.7,237.8,32.7z"
   id="path66"
   style="fill:#000000" />
			<path
   class="st0"
   d="M260.3,34V19h-0.1l-4.6,15h-1.4l-4.6-15h-0.1v15h-1.6V17.6h2.8l4.2,13.3h0.1l4.2-13.3h2.9V34     C261.9,34,260.3,34,260.3,34z"
   id="path68"
   style="fill:#000000" />
			<path
   class="st0"
   d="M266.6,34V17.6h5.7c3.5,0,5,2,5,4.6c0,2.7-1.9,4.5-6,4.5h-2.9V34C268.4,34,266.6,34,266.6,34z M268.4,25.1     h3.1c3.1,0,4-1,4-3s-1.2-3-3.6-3h-3.5L268.4,25.1L268.4,25.1z"
   id="path70"
   style="fill:#000000" />
			<path
   class="st0"
   d="M282.5,17.6v11.6c0,1.9,1.3,3.5,3.9,3.5s3.9-1.6,3.9-3.5V17.6h1.8V29c0,3.3-2.4,5.2-5.7,5.2     s-5.7-1.9-5.7-5.2V17.6H282.5z"
   id="path72"
   style="fill:#000000" />
			<path
   class="st0"
   d="M301.9,19.1V34h-1.8V19.1h-4.9v-1.6h11.7v1.6C306.9,19.1,301.9,19.1,301.9,19.1z"
   id="path74"
   style="fill:#000000" />
			<path
   class="st0"
   d="M312,17.6V34h-1.8V17.6H312z"
   id="path76"
   style="fill:#000000" />
			<path
   class="st0"
   d="M317.4,34V17.6h2.6l7.1,12.6h0.1V17.6h1.6V34h-1.5L319,19.4h-0.1V34L317.4,34L317.4,34z"
   id="path78"
   style="fill:#000000" />
			<path
   class="st0"
   d="M344.7,26.1V34h-1.5v-1.5h-0.1c-0.9,1.2-2.5,1.7-4.3,1.7c-3.8,0-6.4-2.7-6.4-8.5c0-5.7,2.7-8.5,6.4-8.5     c2.7,0,4.9,1.3,5.9,4.9l-1.6,0.3c-0.8-2.6-2.2-3.6-4.1-3.6c-2.4,0-4.7,1.6-4.7,6.9s2.3,6.9,4.7,6.9c2.7,0,3.9-1.6,3.9-3.6v-1.4     h-3.7v-1.6H344.7L344.7,26.1z"
   id="path80"
   style="fill:#000000" />
		</g>
	</g>
</g>
</svg>
