<?xml version="1.0" encoding="UTF-8" standalone="no"?>
<!-- Created with Inkscape (http://www.inkscape.org/) -->

<svg
   width="130mm"
   height="130mm"
   viewBox="0 0 130 130"
   version="1.1"
   id="svg5"
   sodipodi:docname="gallery_icon.svg"
   inkscape:version="1.2.1 (9c6d41e410, 2022-07-14)"
   xmlns:inkscape="http://www.inkscape.org/namespaces/inkscape"
   xmlns:sodipodi="http://sodipodi.sourceforge.net/DTD/sodipodi-0.dtd"
   xmlns="http://www.w3.org/2000/svg"
   xmlns:svg="http://www.w3.org/2000/svg">
  <sodipodi:namedview
     id="namedview10"
     pagecolor="#505050"
     bordercolor="#eeeeee"
     borderopacity="1"
     inkscape:showpageshadow="0"
     inkscape:pageopacity="0"
     inkscape:pagecheckerboard="0"
     inkscape:deskcolor="#505050"
     inkscape:document-units="mm"
     showgrid="false"
     inkscape:zoom="0.5946522"
     inkscape:cx="66.425383"
     inkscape:cy="218.61518"
     inkscape:window-width="1920"
     inkscape:window-height="1017"
     inkscape:window-x="-8"
     inkscape:window-y="-8"
     inkscape:window-maximized="1"
     inkscape:current-layer="svg5" />
  <defs
     id="defs2" />
  <g
     id="layer1"
     transform="translate(-40.000003,-71.809229)">
    <path
       id="rect234"
       style="display:inline;fill:none;fill-opacity:0;stroke:#000000;stroke-width:6.873;stroke-dasharray:none;stroke-opacity:1"
       d="m 52.877952,168.63559 h -3.515027 a 5.55625,5.55625 0 0 1 -5.55625,-5.55625 V 86.413237 a 5.55625,5.55625 0 0 1 5.55625,-5.55625 v 0 H 160.63708 a 5.55625,5.55625 0 0 1 5.55625,5.55625 v 76.666103 a 5.55625,5.55625 0 0 1 -5.55625,5.55625 h -3.51502" />
    <path
       id="path2840"
       style="display:none;fill:none;fill-opacity:0;stroke:#000000;stroke-width:6.873;stroke-dasharray:none;stroke-opacity:1"
       d="M 157.12206,168.63559 H 52.877952" />
    <path
       id="rect234-5"
       style="display:inline;fill:none;fill-opacity:0;stroke:#000000;stroke-width:6.873;stroke-dasharray:none;stroke-opacity:1"
       d="m 61.342877,180.8 h -2.908865 a 5.55625,5.55625 0 0 1 -5.55625,-5.55625 v -72.04454 a 5.55625,5.55625 0 0 1 5.55625,-5.55625 v 0 h 93.131978 a 5.55625,5.55625 0 0 1 5.55625,5.55625 v 72.04454 A 5.55625,5.55625 0 0 1 151.56599,180.8 l -2.90939,-1e-5" />
    <path
       id="path2814"
       style="display:none;fill:none;fill-opacity:0;stroke:#000000;stroke-width:6.873;stroke-dasharray:none;stroke-opacity:1"
       d="M 148.6566,180.79999 61.342877,180.8" />
    <path
       style="display:inline;fill:#000000;fill-opacity:0;stroke:#000000;stroke-width:6.873;stroke-dasharray:none;stroke-opacity:1"
       id="rect234-3"
       width="87.313515"
       height="78.129623"
       x="61.343239"
       y="114.63185"
       d="M 66.899489,114.63185 H 143.1005 a 5.55625,5.55625 45 0 1 5.55625,5.55625 v 67.01712 a 5.55625,5.55625 135 0 1 -5.55625,5.55625 H 66.899489 a 5.55625,5.55625 45 0 1 -5.55625,-5.55625 V 120.1881 a 5.55625,5.55625 135 0 1 5.55625,-5.55625 z"
       class="UnoptimicedTransforms" />
  </g>
</svg>
