<?xml version="1.0" encoding="UTF-8" standalone="no"?>
<!-- Created with Inkscape (http://www.inkscape.org/) -->

<svg
   version="1.1"
   id="svg2"
   width="70"
   height="70"
   viewBox="-2 -10 70.000001 70"
   xmlns="http://www.w3.org/2000/svg"
   xmlns:svg="http://www.w3.org/2000/svg">
  <defs
     id="defs6" />
  <g
     id="g10"
     transform="matrix(1.3333333,0,0,-1.3333333,4.9824113e-5,82.421331)">
    <g
       id="g12"
       transform="scale(0.1)">
      <path
         d="M 32.6992,573.051 C -12.8711,507.582 -7.23828,422.406 27.6289,352.836 c 0.7774,-1.699 1.6758,-3.305 2.5313,-4.945 0.4882,-1.063 1.0468,-2.129 1.6445,-3.172 0.2617,-0.578 0.6719,-1.211 1.0078,-1.774 0.5625,-1.136 1.1563,-2.183 1.7539,-3.265 1.1211,-1.887 2.2383,-3.805 3.3594,-5.676 0.6328,-1.043 1.2344,-2.09 1.9414,-3.133 1.1914,-2.019 2.5742,-4.012 3.8086,-6.027 0.5586,-0.86 1.082,-1.699 1.6797,-2.539 1.789,-2.727 3.5859,-5.414 5.5625,-8.063 0,-0.078 0.0742,-0.148 0.1484,-0.183 0.2969,-0.45 0.6328,-0.879 0.9297,-1.289 1.6797,-2.297 3.3594,-4.536 5.1172,-6.758 0.5976,-0.821 1.2656,-1.641 1.8672,-2.442 1.6015,-1.945 3.1718,-3.882 4.7343,-5.804 0.6016,-0.692 1.1954,-1.422 1.8321,-2.129 2.0898,-2.52 4.2929,-5.02 6.5351,-7.489 0,-0.031 0.0703,-0.085 0.1094,-0.144 0.0742,-0.094 0.1484,-0.188 0.2969,-0.277 2.164,-2.375 4.3672,-4.704 6.6094,-7.02 0.707,-0.711 1.414,-1.398 2.1992,-2.148 1.7148,-1.739 3.4336,-3.489 5.2656,-5.204 0.7461,-0.714 1.4883,-1.402 2.2031,-2.089 2.3867,-2.243 4.7735,-4.485 7.2735,-6.625 0.039,-0.039 0.0781,-0.063 0.1132,-0.094 0.4102,-0.356 0.8594,-0.715 1.2344,-1.067 2.1992,-1.882 4.4063,-3.75 6.6403,-5.597 0.899,-0.75 1.793,-1.457 2.692,-2.184 1.867,-1.476 3.73,-2.89 5.594,-4.312 0.972,-0.727 1.945,-1.473 2.953,-2.242 2.015,-1.508 4.105,-2.981 6.156,-4.438 0.746,-0.543 1.492,-1.086 2.277,-1.586 0.188,-0.168 0.41,-0.316 0.598,-0.469 2.051,-1.343 3.992,-2.648 6.012,-3.976 0.89,-0.574 1.754,-1.137 2.613,-1.711 3.133,-2 6.266,-3.922 9.367,-5.789 0.895,-0.469 1.789,-0.973 2.649,-1.473 2.312,-1.344 4.667,-2.672 7.054,-3.941 1.305,-0.727 2.613,-1.364 3.953,-2.032 1.61,-0.878 3.289,-1.773 5.008,-2.652 0.41,-0.164 0.82,-0.316 1.192,-0.519 0.707,-0.321 1.378,-0.676 2.05,-1.008 2.618,-1.289 5.301,-2.504 8.067,-3.735 0.519,-0.246 1.078,-0.464 1.64,-0.746 3.094,-1.343 6.196,-2.632 9.368,-3.882 0.75,-0.278 1.492,-0.618 2.277,-0.875 2.875,-1.122 5.859,-2.223 8.808,-3.286 0.375,-0.152 0.708,-0.265 1.083,-0.39 3.285,-1.125 6.531,-2.184 9.855,-3.215 0.781,-0.223 1.566,-0.5 2.387,-0.707 3.398,-1.024 6.679,-2.223 10.152,-2.875 220.328,-40.16 284.34,132.41 284.34,132.41 -53.781,-70 -149.223,-88.496 -239.621,-67.93 -3.363,0.762 -6.684,1.828 -10.078,2.84 -0.789,0.223 -1.684,0.481 -2.469,0.762 -3.281,0.988 -6.527,2.055 -9.699,3.137 -0.45,0.148 -0.934,0.312 -1.383,0.504 -2.871,0.988 -5.707,2.07 -8.547,3.167 -0.785,0.34 -1.605,0.622 -2.391,0.918 -3.136,1.231 -6.23,2.555 -9.254,3.883 -0.671,0.239 -1.234,0.524 -1.871,0.782 -2.644,1.214 -5.183,2.406 -7.761,3.64 -0.782,0.336 -1.493,0.711 -2.278,1.102 -2.015,0.953 -4.027,2.015 -6.004,3.062 -1.382,0.707 -2.73,1.36 -4.035,2.086 -2.426,1.305 -4.851,2.688 -7.277,4.031 -0.75,0.508 -1.57,0.938 -2.43,1.403 -3.133,1.863 -6.308,3.789 -9.402,5.765 -0.895,0.563 -1.719,1.121 -2.539,1.7 -2.278,1.433 -4.52,2.949 -6.719,4.441 -0.711,0.504 -1.418,1.027 -2.164,1.551 -2.129,1.492 -4.219,3 -6.344,4.554 -0.898,0.707 -1.832,1.415 -2.801,2.125 -1.906,1.473 -3.808,2.93 -5.71,4.461 -0.825,0.688 -1.676,1.364 -2.504,2.032 -2.461,1.976 -4.774,3.961 -7.129,6.011 -0.223,0.243 -0.555,0.45 -0.821,0.653 -2.5,2.238 -5,4.531 -7.464,6.812 -0.747,0.707 -1.375,1.363 -2.125,2.035 -1.789,1.754 -3.582,3.469 -5.336,5.246 -0.746,0.743 -1.422,1.434 -2.129,2.141 -2.242,2.262 -4.446,4.594 -6.606,6.981 -0.113,0.097 -0.226,0.203 -0.34,0.335 -2.273,2.5 -4.476,5.04 -6.675,7.618 -0.602,0.687 -1.161,1.398 -1.754,2.07 -1.61,1.977 -3.215,3.977 -4.856,5.953 -0.519,0.766 -1.121,1.492 -1.718,2.242 -1.903,2.446 -3.731,4.887 -5.5591,7.407 -50.168,68.437 -68.2695,162.886 -28.1406,240.39"
         style="fill:#2e64b3;fill-opacity:1;fill-rule:nonzero;stroke:none"
         id="path48" />
      <path
         d="m 174.164,628.238 c -33.035,-47.402 -31.203,-110.875 -5.488,-161.035 4.254,-8.398 9.105,-16.558 14.554,-24.301 4.93,-7.089 10.379,-15.488 16.985,-21.183 2.312,-2.614 4.812,-5.153 7.39,-7.703 0.637,-0.637 1.274,-1.258 1.942,-1.926 2.465,-2.367 4.965,-4.703 7.539,-6.977 0.078,-0.097 0.223,-0.191 0.301,-0.285 0.035,-0.019 0.074,-0.051 0.074,-0.051 2.871,-2.539 5.785,-4.949 8.809,-7.3 0.707,-0.504 1.343,-1.067 2.05,-1.567 2.989,-2.336 6.051,-4.57 9.145,-6.773 0.113,-0.039 0.187,-0.114 0.34,-0.172 1.34,-0.969 2.758,-1.863 4.215,-2.797 0.632,-0.41 1.304,-0.895 1.941,-1.289 2.273,-1.477 4.516,-2.852 6.828,-4.219 0.34,-0.168 0.672,-0.351 1.008,-0.519 1.941,-1.176 3.992,-2.332 6.051,-3.379 0.707,-0.43 1.414,-0.766 2.125,-1.157 1.418,-0.707 2.836,-1.453 4.215,-2.183 0.187,-0.098 0.453,-0.203 0.675,-0.301 2.91,-1.437 5.86,-2.758 8.77,-4.086 0.707,-0.281 1.308,-0.523 1.976,-0.801 2.395,-1.027 4.817,-2.039 7.207,-2.949 1.079,-0.359 2.09,-0.781 3.098,-1.14 2.199,-0.782 4.441,-1.547 6.645,-2.274 1.078,-0.355 2.05,-0.656 3.023,-0.973 3.133,-0.992 6.309,-2.261 9.629,-2.777 170.055,-28.203 209.394,102.793 209.394,102.793 -35.421,-51.027 -103.992,-75.324 -177.144,-56.328 -3.285,0.84 -6.492,1.777 -9.633,2.801 -1.008,0.261 -1.898,0.578 -2.871,0.914 -2.277,0.726 -4.559,1.496 -6.758,2.316 -1.008,0.371 -2.051,0.746 -3.058,1.137 -2.426,0.949 -4.852,1.883 -7.207,2.93 -0.707,0.281 -1.379,0.519 -1.938,0.82 -3.023,1.309 -6.012,2.711 -8.922,4.105 -1.492,0.766 -2.949,1.512 -4.441,2.297 -0.895,0.449 -1.754,0.879 -2.539,1.289 -1.981,1.024 -3.809,2.11 -5.676,3.207 -0.441,0.243 -0.895,0.469 -1.344,0.731 -2.273,1.379 -4.629,2.762 -6.789,4.199 -0.75,0.426 -1.383,0.914 -2.09,1.359 -1.496,0.954 -2.949,1.903 -4.484,2.93 -3.094,2.149 -6.117,4.422 -9.141,6.703 -0.711,0.578 -1.382,1.098 -2.054,1.66 -32.102,25.27 -57.481,59.829 -69.496,98.965 -12.692,40.649 -9.895,86.281 11.98,123.285"
         style="fill:#2e64b3;fill-opacity:1;fill-rule:nonzero;stroke:none"
         id="path50" />
      <path
         d="m 293.082,669.465 c -19.484,-28.59 -21.352,-64.11 -7.918,-95.645 14.262,-33.523 43.41,-59.816 77.379,-72.261 1.379,-0.543 2.762,-0.993 4.18,-1.477 0.636,-0.184 1.23,-0.391 1.906,-0.594 1.976,-0.617 3.953,-1.363 6.004,-1.758 93.945,-18.14 119.406,48.208 126.234,57.969 -22.355,-32.14 -59.867,-39.844 -105.89,-28.668 -3.622,0.879 -7.579,2.184 -11.086,3.453 -4.477,1.586 -8.918,3.43 -13.25,5.469 -8.098,3.934 -15.938,8.676 -23.18,14.164 -41.207,31.242 -66.734,90.832 -39.863,139.371"
         style="fill:#2e64b3;fill-opacity:1;fill-rule:nonzero;stroke:none"
         id="path52" />
    </g>
  </g>
</svg>
