<?xml version="1.0" encoding="UTF-8" standalone="no"?>
<!-- Created with Inkscape (http://www.inkscape.org/) -->

<svg
   version="1.1"
   id="svg2"
   width="92.56765"
   height="128.29733"
   viewBox="0 0 92.56765 128.29733"
   sodipodi:docname="wsu_no_text.svg"
   inkscape:version="1.2.1 (9c6d41e410, 2022-07-14)"
   xmlns:inkscape="http://www.inkscape.org/namespaces/inkscape"
   xmlns:sodipodi="http://sodipodi.sourceforge.net/DTD/sodipodi-0.dtd"
   xmlns="http://www.w3.org/2000/svg"
   xmlns:svg="http://www.w3.org/2000/svg">
  <defs
     id="defs6" />
  <sodipodi:namedview
     id="namedview4"
     pagecolor="#5e5e5e"
     bordercolor="#666666"
     borderopacity="1.0"
     inkscape:showpageshadow="2"
     inkscape:pageopacity="0"
     inkscape:pagecheckerboard="0"
     inkscape:deskcolor="#d1d1d1"
     showgrid="false"
     inkscape:zoom="4.8892189"
     inkscape:cx="60.336836"
     inkscape:cy="75.881241"
     inkscape:window-width="1920"
     inkscape:window-height="1017"
     inkscape:window-x="-8"
     inkscape:window-y="-8"
     inkscape:window-maximized="1"
     inkscape:current-layer="g10">
    <inkscape:page
       x="0"
       y="0"
       id="page8"
       width="92.56765"
       height="128.29733" />
  </sodipodi:namedview>
  <g
     id="g10"
     inkscape:groupmode="layer"
     inkscape:label="Page 1"
     transform="matrix(1.3333333,0,0,-1.3333333,-171.28666,273.05733)">
    <g
       id="g12"
       transform="scale(0.1)">
      <path
         d="m 1966.18,1781.72 v 253.48 h -668.83 v -256.16 c 0,-481.42 334.4,-678.73 334.4,-678.73 v 0 c 0,0 336.27,185.08 334.43,680.08 v 1.33"
         style="fill:#412261;fill-opacity:1;fill-rule:nonzero;stroke:none"
         id="path54" />
      <path
         d="m 1310.07,2022.48 v -243.44 c 0,-244.55 89.12,-412.99 163.87,-511.23 68.24,-89.65 137.28,-138.85 158,-152.56 20.92,13.01 90.18,59.91 158.42,148.3 74.94,96.96 164.02,265.34 163.11,516.8 v 242.13 z m 321.46,-936.78 -6.23,3.68 c -3.42,2.03 -340.65,206.58 -340.65,689.66 v 268.89 h 694.25 v -266.21 c 1.83,-498.09 -337.58,-690.67 -341,-692.54 l -6.37,-3.48"
         style="fill:#ffffff;fill-opacity:1;fill-rule:nonzero;stroke:none"
         id="path56" />
      <path
         d="m 1780.17,1803.09 c -47.39,62.24 -39.38,90.54 -39.38,90.54 0,0 -25.12,-45.04 -37.73,-82.38 -15.47,-45.55 15.06,-92.5 15.06,-92.5 l 51.87,-75.2 c 20.08,-31.44 -29.55,-104.45 -29.55,-104.45 l -107.46,250.33 c -43.63,101.59 -17.54,139.95 -17.54,139.95 -88.91,-93.75 -77.09,-152.86 -63.48,-194.18 0,0 19.57,-48.48 44.61,-110.47 l -34.51,-89.69 -69.22,164.73 c -24.04,62.5 1.82,104.49 1.82,104.49 -111.7,-97.7 -70.39,-198.05 -49.22,-249.3 47.6,-115.55 79.06,-188.87 86.46,-208.87 1.59,-4.31 3.01,-7.89 3.01,-7.89 h 21.25 c 1.78,0.28 3.21,1.18 4.3,2.82 1.09,1.54 8.01,24.14 8.01,24.14 l 56.32,189.57 c 36.65,-90.82 82.31,-203.01 85.22,-210.73 1.43,-3.73 2.36,-5.8 2.36,-5.8 -0.06,0 20.82,0 20.82,0 1.21,0.24 2.41,0.78 3.83,2.58 1.68,2.23 9.04,24.57 9.04,24.57 l 82.47,238.28 c 40.37,105.04 -10.1,149.12 -48.36,199.46"
         style="fill:#ffffff;fill-opacity:1;fill-rule:nonzero;stroke:none"
         id="path58" />
    </g>
  </g>
</svg>
